<?xml version="1.0" standalone="no"?><!DOCTYPE svg PUBLIC "-//W3C//DTD SVG 1.1//EN" "http://www.w3.org/Graphics/SVG/1.1/DTD/svg11.dtd"><svg width="200" height="200" viewBox="0 0 200 200" version="1.1" xmlns="http://www.w3.org/2000/svg" xmlns:xlink="http://www.w3.org/1999/xlink"><defs><style type="text/css"><![CDATA[
@font-face { font-family: ifont; src: url("//at.alicdn.com/t/font_1442373896_4754455.eot?#iefix") format("embedded-opentype"), url("//at.alicdn.com/t/font_1442373896_4754455.woff") format("woff"), url("//at.alicdn.com/t/font_1442373896_4754455.ttf") format("truetype"), url("//at.alicdn.com/t/font_1442373896_4754455.svg#ifont") format("svg"); }

]]></style></defs><g class="transform-group"><g transform="scale(0.1953125, 0.1953125)"><path d="M896 256l-192 0 0-128c0-35.2-28.8-64-64-64l-256 0c-35.2 0-64 28.8-64 64l0 128-192 0c-70.4 0-128 57.6-128 128l0 512c0 70.4 57.6 128 128 128l768 0c70.4 0 128-57.6 128-128l0-512c0-70.4-57.6-128-128-128zM384 128l256 0 0 128-256 0 0-128zM768 704l-192 0 0 192-128 0 0-192-192 0 0-128 192 0 0-192 128 0 0 192 192 0 0 128z" fill="#78909c"></path></g></g></svg>