<?xml version="1.0" standalone="no"?><!DOCTYPE svg PUBLIC "-//W3C//DTD SVG 1.1//EN" "http://www.w3.org/Graphics/SVG/1.1/DTD/svg11.dtd"><svg width="200" height="200" viewBox="0 0 200 200" version="1.1" xmlns="http://www.w3.org/2000/svg" xmlns:xlink="http://www.w3.org/1999/xlink"><defs><style type="text/css"><![CDATA[
@font-face { font-family: ifont; src: url("//at.alicdn.com/t/font_1442373896_4754455.eot?#iefix") format("embedded-opentype"), url("//at.alicdn.com/t/font_1442373896_4754455.woff") format("woff"), url("//at.alicdn.com/t/font_1442373896_4754455.ttf") format("truetype"), url("//at.alicdn.com/t/font_1442373896_4754455.svg#ifont") format("svg"); }

]]></style></defs><g class="transform-group"><g transform="scale(0.1953125, 0.1953125)"><path d="M514.606873 923.165454C194.40413 702.192713 73.773725 525.186324 73.773725 381.992017l0-49.611931c0-149.940964 111.612007-227.743958 198.434421-235.635695 13.528108-2.255367 27.037796-2.255367 39.454594-2.255367 100.332103 0 147.715273 41.720194 202.944132 107.113553 54.103222-65.393359 102.586446-107.113553 201.825658-107.113553 12.384052 0 25.910113 0 39.446407 2.255367 86.822414 7.891737 198.426235 85.693708 198.426235 235.635695l0 49.611931C954.30415 525.186324 833.673745 702.192713 514.606873 923.165454M681.406806 644.629693 601.961406 412.559197l-42.757826 181.111894-80.608899-359.621521L373.588115 606.799086l-136.502907 54.409191 183.754071 0 55.124482-226.050386 74.270541 344.899214 62.23032-215.372186 47.558156 130.98831 120.447233 0L681.406806 644.629693z" fill="#78909c"></path></g></g></svg>