<?xml version="1.0" standalone="no"?><!DOCTYPE svg PUBLIC "-//W3C//DTD SVG 1.1//EN" "http://www.w3.org/Graphics/SVG/1.1/DTD/svg11.dtd"><svg width="200" height="200" viewBox="0 0 200 200" version="1.1" xmlns="http://www.w3.org/2000/svg" xmlns:xlink="http://www.w3.org/1999/xlink"><defs><style type="text/css"><![CDATA[
@font-face { font-family: ifont; src: url("//at.alicdn.com/t/font_1442373896_4754455.eot?#iefix") format("embedded-opentype"), url("//at.alicdn.com/t/font_1442373896_4754455.woff") format("woff"), url("//at.alicdn.com/t/font_1442373896_4754455.ttf") format("truetype"), url("//at.alicdn.com/t/font_1442373896_4754455.svg#ifont") format("svg"); }

]]></style></defs><g class="transform-group"><g transform="scale(0.1953125, 0.1953125)"><path d="M1024 157.515294l0 78.787765-157.515294 0 0 157.575529-78.787765 0 0-157.575529-157.515294 0 0-78.787765 157.515294 0 0-157.515294 78.787765 0 0 157.515294 157.515294 0zM625.844706 769.807059c0 70.776471-33.792 128-86.136471 173.537882-70.776471 60.958118-167.393882 80.655059-258.469647 80.655059-115.049412 0-281.238588-49.212235-281.238588-191.969882 0-28.912941 9.878588-57.283765 22.829176-83.124706 54.693647-110.712471 225.761882-139.083294 335.932235-142.155294-20.239059-26.443294-39.333647-57.163294-39.333647-91.678118 0-20.299294 7.288471-33.852235 13.552941-52.886588-14.817882 1.807059-28.912941 3.072-43.068235 3.072-119.386353 0-222.750118-88.003765-222.750118-211.727059 0-116.916706 90.413176-216.606118 202.390588-241.182118 37.586824-8.071529 76.257882-12.348235 115.049412-12.348235l269.010824 0-83.064471 48.609882-83.184941 0c61.018353 38.128941 91.738353 112.64 91.738353 181.549176 0 163.056941-137.878588 175.344941-137.878588 256.602353 0 79.390118 184.621176 110.772706 184.621176 283.045647zM465.317647 292.321882c0-93.545412-50.537412-247.988706-164.382118-247.988706-80.534588 0-119.928471 71.378824-119.928471 144.022588 0 93.485176 61.500235 239.977412 171.068235 239.977412 84.208941-0.060235 113.242353-60.958118 113.242353-136.011294zM539.105882 822.753882c0-86.136471-80.715294-134.144-143.420235-177.874824-10.480941-1.204706-20.359529-1.204706-30.840471-1.204706-100.833882 0-251.060706 31.984941-251.060706 159.984941 0 118.121412 132.939294 163.719529 231.424 163.719529 91.678118 0 193.897412-36.924235 193.897412-144.624941z" fill="#ecf0f1"></path></g></g></svg>