<?xml version="1.0" standalone="no"?><!DOCTYPE svg PUBLIC "-//W3C//DTD SVG 1.1//EN" "http://www.w3.org/Graphics/SVG/1.1/DTD/svg11.dtd"><svg width="200" height="200" viewBox="0 0 200 200" version="1.1" xmlns="http://www.w3.org/2000/svg" xmlns:xlink="http://www.w3.org/1999/xlink"><defs><style type="text/css"><![CDATA[
@font-face { font-family: ifont; src: url("//at.alicdn.com/t/font_1442373896_4754455.eot?#iefix") format("embedded-opentype"), url("//at.alicdn.com/t/font_1442373896_4754455.woff") format("woff"), url("//at.alicdn.com/t/font_1442373896_4754455.ttf") format("truetype"), url("//at.alicdn.com/t/font_1442373896_4754455.svg#ifont") format("svg"); }

]]></style></defs><g class="transform-group"><g transform="scale(0.1953125, 0.1953125)"><path d="M512 128c0 0-263.936 227.84-411.456 351.232-8.64 7.872-15.232 19.264-15.232 32.768 0 23.616 19.072 42.688 42.688 42.688h85.312v298.688c0 23.616 19.072 42.688 42.688 42.688h128c23.616 0 42.688-19.136 42.688-42.688v-170.688h170.688v170.688c0 23.552 19.072 42.688 42.688 42.688h128c23.616 0 42.688-19.072 42.688-42.688v-298.688h85.312c23.616 0 42.688-19.072 42.688-42.688 0-13.504-6.592-24.896-16.32-32.768-146.496-123.392-410.304-351.232-410.304-351.232z" fill="#78909c"></path></g></g></svg>