<?xml version="1.0" standalone="no"?><!DOCTYPE svg PUBLIC "-//W3C//DTD SVG 1.1//EN" "http://www.w3.org/Graphics/SVG/1.1/DTD/svg11.dtd"><svg width="200" height="200" viewBox="0 0 200 200" version="1.1" xmlns="http://www.w3.org/2000/svg" xmlns:xlink="http://www.w3.org/1999/xlink"><defs><style type="text/css"><![CDATA[
@font-face { font-family: ifont; src: url("//at.alicdn.com/t/font_1442373896_4754455.eot?#iefix") format("embedded-opentype"), url("//at.alicdn.com/t/font_1442373896_4754455.woff") format("woff"), url("//at.alicdn.com/t/font_1442373896_4754455.ttf") format("truetype"), url("//at.alicdn.com/t/font_1442373896_4754455.svg#ifont") format("svg"); }

]]></style></defs><g class="transform-group"><g transform="scale(0.1953125, 0.1953125)"><path d="M351.3 830.566l-136.533 0 0-455.1 136.533 0 0 455.1zM851.899 830.566l-136.533 0 0-243.132c0-63.351-22.562-94.891-67.311-94.891-35.465 0-57.924 17.647-69.222 53.009 0 57.446 0 284.979 0 284.979l-136.533 0c0 0 1.809-409.6 0-455.1l107.759 0 8.329 91.034 2.833 0c27.989-45.5 72.738-76.356 134.076-76.356 46.66 0 84.378 12.971 113.186 45.568 28.979 32.631 43.418 76.425 43.418 137.899l0 256.99zM353.553 261.7c0 37.717-31.573 68.267-70.554 68.267s-70.554-30.549-70.554-68.267c0-37.717 31.573-68.267 70.554-68.267 38.946 0 70.554 30.549 70.554 68.267z" fill="#ecf0f1"></path></g></g></svg>