<?xml version="1.0" standalone="no"?><!DOCTYPE svg PUBLIC "-//W3C//DTD SVG 1.1//EN" "http://www.w3.org/Graphics/SVG/1.1/DTD/svg11.dtd"><svg width="200" height="200" viewBox="0 0 200 200" version="1.1" xmlns="http://www.w3.org/2000/svg" xmlns:xlink="http://www.w3.org/1999/xlink"><defs><style type="text/css"><![CDATA[
@font-face { font-family: ifont; src: url("//at.alicdn.com/t/font_1442373896_4754455.eot?#iefix") format("embedded-opentype"), url("//at.alicdn.com/t/font_1442373896_4754455.woff") format("woff"), url("//at.alicdn.com/t/font_1442373896_4754455.ttf") format("truetype"), url("//at.alicdn.com/t/font_1442373896_4754455.svg#ifont") format("svg"); }

]]></style></defs><g class="transform-group"><g transform="scale(0.1953125, 0.1953125)"><path d="M633.917 742.702c0 17.858 14.121 32.333 31.537 32.333l252.337 0c17.416 0 31.544-14.475 31.544-32.333s-14.127-32.333-31.544-32.333L665.454 710.369C648.038 710.369 633.917 724.844 633.917 742.702zM921.756 900.256 417.441 900.256c-17.41 0-31.525 14.494-31.525 32.371s14.115 32.371 31.525 32.371l504.314 0c17.41 0 31.518-14.494 31.518-32.371S939.166 900.256 921.756 900.256zM765.906 256.644c14.828-20.648 10.536-49.724-9.576-64.937L592.456 67.741c-20.112-15.22-48.43-10.82-63.252 9.835l-13.42 18.691 236.707 179.068L765.906 256.644zM497.011 122.433 115.961 653.31l236.707 179.068L733.706 301.5 497.011 122.433zM372.237 710.893c-8.85 12.6-25.963 15.466-38.216 6.388-12.259-9.071-15.017-26.651-6.161-39.264l256.497-365.237c8.85-12.606 25.963-15.472 38.222-6.395 12.246 9.077 14.999 26.658 6.155 39.264L372.237 710.893zM70.82 945.271c-1.3 13.023 11.015 22.567 22.845 17.277 14.115-6.313 146.697-65.732 208.433-93.438L95.913 713.14C88.167 783.531 71.969 933.776 70.82 945.271z" fill="#78909c"></path></g></g></svg>