<?xml version="1.0" standalone="no"?><!DOCTYPE svg PUBLIC "-//W3C//DTD SVG 1.1//EN" "http://www.w3.org/Graphics/SVG/1.1/DTD/svg11.dtd"><svg width="200" height="200" viewBox="0 0 200 200" version="1.1" xmlns="http://www.w3.org/2000/svg" xmlns:xlink="http://www.w3.org/1999/xlink"><defs><style type="text/css"><![CDATA[
@font-face { font-family: ifont; src: url("//at.alicdn.com/t/font_1442373896_4754455.eot?#iefix") format("embedded-opentype"), url("//at.alicdn.com/t/font_1442373896_4754455.woff") format("woff"), url("//at.alicdn.com/t/font_1442373896_4754455.ttf") format("truetype"), url("//at.alicdn.com/t/font_1442373896_4754455.svg#ifont") format("svg"); }

]]></style></defs><g class="transform-group"><g transform="scale(0.1953125, 0.1953125)"><path d="M743.460571 607.451429q0-28.598857-11.117714-52.297143t-27.721143-39.131429-41.691429-28.013714-47.177143-19.456-50.029714-13.165714l-59.465143-13.677714q-17.115429-4.022857-25.161143-5.997714t-19.968-6.582857-17.115429-9.142857-9.435429-11.995429-4.315429-17.115429q0-44.032 82.285714-44.032 24.576 0 44.032 6.875429t30.866286 16.310857 21.723429 19.163429 22.820571 16.603429 27.428571 6.875429q26.843429 0 43.154286-18.285714t16.310857-44.032q0-31.451429-32.036571-56.832t-81.115429-38.546286-104.009143-13.165714q-38.838857 0-75.410286 8.850286t-68.315429 26.843429-50.834286 49.737143-19.163429 73.435429q0 34.889143 10.825143 60.854857t32.036571 43.154286 45.714286 27.721143 58.88 18.578286l83.456 20.553143q51.419429 12.580571 64 20.553143 18.285714 11.410286 18.285714 34.304 0 22.308571-22.820571 36.864t-59.977143 14.555429q-29.110857 0-52.297143-9.142857t-37.156571-22.016-25.965714-25.746286-26.258286-22.016-30.866286-9.142857q-28.598857 0-43.154286 17.115429t-14.555429 42.861714q0 52.589714 69.705143 89.965714t166.253714 37.449143q41.691429 0 80.018286-10.605714t69.997714-30.573714 50.541714-53.394286 18.870857-75.117714zM950.893714 731.428571q0 90.843429-64.292571 155.136t-155.136 64.292571q-74.313143 0-133.705143-45.714286-44.032 9.142857-85.723429 9.142857-81.700571 0-156.306286-31.744t-128.585143-85.723429-85.723429-128.585143-31.744-156.306286q0-41.691429 9.142857-85.723429-45.714286-59.465143-45.714286-133.705143 0-90.843429 64.292571-155.136t155.136-64.292571q74.313143 0 133.705143 45.714286 44.032-9.142857 85.723429-9.142857 81.700571 0 156.306286 31.744t128.585143 85.723429 85.723429 128.585143 31.744 156.306286q0 41.691429-9.142857 85.723429 45.714286 59.465143 45.714286 133.705143z" fill="#ecf0f1"></path></g></g></svg>