<?xml version="1.0" standalone="no"?><!DOCTYPE svg PUBLIC "-//W3C//DTD SVG 1.1//EN" "http://www.w3.org/Graphics/SVG/1.1/DTD/svg11.dtd"><svg width="200" height="200" viewBox="0 0 200 200" version="1.1" xmlns="http://www.w3.org/2000/svg" xmlns:xlink="http://www.w3.org/1999/xlink"><defs><style type="text/css"><![CDATA[
@font-face { font-family: ifont; src: url("//at.alicdn.com/t/font_1442373896_4754455.eot?#iefix") format("embedded-opentype"), url("//at.alicdn.com/t/font_1442373896_4754455.woff") format("woff"), url("//at.alicdn.com/t/font_1442373896_4754455.ttf") format("truetype"), url("//at.alicdn.com/t/font_1442373896_4754455.svg#ifont") format("svg"); }

]]></style></defs><g class="transform-group"><g transform="scale(0.1953125, 0.1953125)"><path d="M512.249878 0.499756c-282.631996 0-511.750122 229.118126-511.750122 511.750122s229.118126 511.750122 511.750122 511.750122 511.750122-229.118126 511.750122-511.750122S794.881874 0.499756 512.249878 0.499756zM836.394604 821.182032c-34.084357-29.763467-92.633769-68.643483-104.89878-76.993406l0.001 0C706.405076 726.645193 628.767984 695.380459 595.7641 686.547772c-15.48344-7.334419-15.251553-37.882503-14.958696-45.310876L579.117228 641.236896c50.946124-38.189353 86.054981-114.539073 86.054981-192.895813 0-112.439098-26.437091-220.881148-152.959313-220.881148-126.841066 0-152.959313 109.941318-152.959313 220.881148 0 77.454181 35.261782 154.449585 86.391816 192.895813l-2.023012 0c0.292857 7.428373 0.525743 37.976457-14.958696 45.310876-33.002885 8.831688-113.177737 41.976504-135.732724 57.640855-9.167524 6.366891-70.970347 47.688714-104.076182 77.771026C111.809406 741.530924 64.468521 632.420201 64.468521 512.249878c0-247.303246 200.47811-447.781357 447.781357-447.781357s447.781357 200.47811 447.781357 447.781357C960.031235 632.03239 912.9992 740.829267 836.394604 821.182032z" fill="#78909c"></path></g></g></svg>